<?xml version="1.0" encoding="utf-8" standalone="no"?><!DOCTYPE svg PUBLIC "-//W3C//DTD SVG 20010904//EN" "http://www.w3.org/TR/2001/REC-SVG-20010904/DTD/svg10.dtd"><svg xmlns="http://www.w3.org/2000/svg" width="1207" height="975" xmlns:xlink="http://www.w3.org/1999/xlink"><source><![CDATA[User->Web API: Http Request
Note right of User:  sendPost \nhttp://127.0.0.1:3000/sendPost\n{name:"Pencil", price:8}
Web API->Data Access: Create Product
Data Access->DB: Insert Product
Note right of Product:  [{name:"Pencil", price:8, _id=1}]

DB->Data Access: Return Product
Data Access->Web API: Return Product
Web API->User: Http Response
Note right of User:  [status: ok]



User->Web API: Http Request
Note right of User:  sendGet \nhttp://127.0.0.1:3000/sendGet
Web API->Data Access: Request Products
Data Access->DB: Get Products
Note right of Product:  [{name:"Pencil", price:8, _id=1}]

DB->Data Access: Return Products
Data Access->Web API: Return Products
Web API->User: Http Response
]]></source><desc></desc><defs><marker viewBox="0 0 5 5" markerWidth="5" markerHeight="5" orient="auto" refX="5" refY="2.5" id="markerArrowBlock"><path d="M 0 0 L 5 2.5 L 0 5 z"></path></marker><marker viewBox="0 0 9.6 16" markerWidth="4" markerHeight="16" orient="auto" refX="9.6" refY="8" id="markerArrowOpen"><path d="M 9.6,8 1.92,16 0,13.7 5.76,8 0,2.286 1.92,0 9.6,8 z"></path></marker></defs><g class="title"></g><g class="actor"><path d="M10,20C25.3,22.5 38.6,17.5 73.7,20.0C72.0,37.6 75.4,31.7 73.7,62.5C63.5,60.0 20.2,65.0 10.0,62.5C8.3,30.2 11.7,31.8 10.0,20.0" stroke="#000000" fill="#ffffff" style="stroke-width: 2;"></path><text x="20" y="44" style="font-size: 16px; font-family: danielbd;"><tspan x="20">User</tspan></text></g><g class="actor"><path d="M10,912.578125C20.2,915.1 34.4,910.0 73.7,912.6C72.0,933.1 75.4,923.2 73.7,955.1C46.7,952.5 63.5,957.6 10.0,955.1C8.3,922.8 11.7,922.0 10.0,912.6" stroke="#000000" fill="#ffffff" style="stroke-width: 2;"></path><text x="20" y="936.578125" style="font-size: 16px; font-family: danielbd;"><tspan x="20">User</tspan></text></g><path d="M41.8,62.5C75.8,269.1 7.8,198.5 41.8,912.6" stroke="#000000" fill="none" style="stroke-width: 2;"></path><g class="actor"><path d="M338.796875,20C358.1,23.5 410.2,16.5 427.1,20.0C428.8,50.7 425.4,32.2 427.1,62.5C385.0,66.0 413.0,59.0 338.8,62.5C340.5,33.9 337.1,26.8 338.8,20.0" stroke="#000000" fill="#ffffff" style="stroke-width: 2;"></path><text x="348.796875" y="44" style="font-size: 16px; font-family: danielbd;"><tspan x="348.796875">Web API</tspan></text></g><g class="actor"><path d="M338.796875,912.578125C405.9,916.1 388.2,909.0 427.1,912.6C425.4,920.3 428.8,931.6 427.1,955.1C385.2,951.5 380.0,958.6 338.8,955.1C337.1,944.7 340.5,923.6 338.8,912.6" stroke="#000000" fill="#ffffff" style="stroke-width: 2;"></path><text x="348.796875" y="936.578125" style="font-size: 16px; font-family: danielbd;"><tspan x="348.796875">Web API</tspan></text></g><path d="M383.0,62.5C349.0,298.9 417.0,656.9 383.0,912.6" stroke="#000000" fill="none" style="stroke-width: 2;"></path><g class="actor"><path d="M495.40625,20C525.7,25.1 591.4,14.9 621.7,20.0C620.0,42.6 623.4,43.8 621.7,62.5C519.4,67.6 601.5,57.4 495.4,62.5C493.7,42.8 497.1,55.7 495.4,20.0" stroke="#000000" fill="#ffffff" style="stroke-width: 2;"></path><text x="505.40625" y="44" style="font-size: 16px; font-family: danielbd;"><tspan x="505.40625">Data Access</tspan></text></g><g class="actor"><path d="M495.40625,912.578125C572.9,907.5 601.5,917.6 621.7,912.6C620.0,922.0 623.4,932.6 621.7,955.1C545.3,960.1 596.3,950.0 495.4,955.1C497.1,944.8 493.7,946.4 495.4,912.6" stroke="#000000" fill="#ffffff" style="stroke-width: 2;"></path><text x="505.40625" y="936.578125" style="font-size: 16px; font-family: danielbd;"><tspan x="505.40625">Data Access</tspan></text></g><path d="M558.5,62.5C524.5,708.6 592.5,283.8 558.5,912.6" stroke="#000000" fill="none" style="stroke-width: 2;"></path><g class="actor"><path d="M698.875,20C711.6,22.1 729.1,17.9 752.0,20.0C750.3,52.3 753.7,30.2 752.0,62.5C743.5,60.4 739.3,64.6 698.9,62.5C697.2,31.1 700.6,45.7 698.9,20.0" stroke="#000000" fill="#ffffff" style="stroke-width: 2;"></path><text x="708.875" y="44" style="font-size: 16px; font-family: danielbd;"><tspan x="708.875">DB</tspan></text></g><g class="actor"><path d="M698.875,912.578125C720.2,914.7 712.3,910.5 752.0,912.6C753.7,944.9 750.3,938.5 752.0,955.1C740.6,953.0 710.6,957.2 698.9,955.1C700.6,929.1 697.2,948.3 698.9,912.6" stroke="#000000" fill="#ffffff" style="stroke-width: 2;"></path><text x="708.875" y="936.578125" style="font-size: 16px; font-family: danielbd;"><tspan x="708.875">DB</tspan></text></g><path d="M725.5,62.5C691.5,687.5 759.5,382.0 725.5,912.6" stroke="#000000" fill="none" style="stroke-width: 2;"></path><g class="actor"><path d="M772.046875,20C824.1,23.7 842.0,16.3 864.1,20.0C862.4,35.7 865.8,48.3 864.1,62.5C841.0,58.8 826.8,66.2 772.0,62.5C770.3,32.9 773.7,30.2 772.0,20.0" stroke="#000000" fill="#ffffff" style="stroke-width: 2;"></path><text x="782.046875" y="44" style="font-size: 16px; font-family: danielbd;"><tspan x="782.046875">Product</tspan></text></g><g class="actor"><path d="M772.046875,912.578125C786.8,908.9 794.1,916.3 864.1,912.6C862.4,946.8 865.8,919.4 864.1,955.1C842.0,958.8 829.0,951.4 772.0,955.1C770.3,940.3 773.7,926.5 772.0,912.6" stroke="#000000" fill="#ffffff" style="stroke-width: 2;"></path><text x="782.046875" y="936.578125" style="font-size: 16px; font-family: danielbd;"><tspan x="782.046875">Product</tspan></text></g><path d="M818.1,62.5C784.1,758.9 852.1,637.5 818.1,912.6" stroke="#000000" fill="none" style="stroke-width: 2;"></path><g class="signal"><text x="153.0625" y="90.25" style="font-size: 16px; font-family: danielbd;"><tspan x="153.0625">Http Request</tspan></text><path d="M41.8,105.0C123.7,91.4 140.2,118.6 383.0,105.0" stroke="#000000" fill="none" style="stroke-width: 2; marker-end: url(&quot;#markerArrowBlock&quot;);"></path></g><g class="note"><path d="M61.8359375,125C135.7,113.0 171.0,137.0 363.0,125.0C360.1,144.8 365.8,184.5 363.0,195.9C134.1,207.9 290.7,183.8 61.8,195.9C59.0,178.9 64.7,180.7 61.8,125.0" stroke="#000000" fill="#ffffff" style="stroke-width: 2;"></path><text x="66.8359375" y="144" style="font-size: 16px; font-family: danielbd;"><tspan x="66.8359375">sendPost</tspan><tspan dy="1.2em" x="66.8359375">http://127.0.0.1:3000/sendPost</tspan><tspan dy="1.2em" x="66.8359375">{name:"Pencil", price:8}</tspan></text></g><g class="signal"><text x="400.4375" y="223.640625" style="font-size: 16px; font-family: danielbd;"><tspan x="400.4375">Create Product</tspan></text><path d="M383.0,238.4C429.1,245.4 429.3,231.4 558.5,238.4" stroke="#000000" fill="none" style="stroke-width: 2; marker-end: url(&quot;#markerArrowBlock&quot;);"></path></g><g class="signal"><text x="578.21875" y="266.140625" style="font-size: 16px; font-family: danielbd;"><tspan x="578.21875">Insert Product</tspan></text><path d="M558.5,280.9C685.4,274.2 698.8,287.6 725.5,280.9" stroke="#000000" fill="none" style="stroke-width: 2; marker-end: url(&quot;#markerArrowBlock&quot;);"></path></g><g class="note"><path d="M838.078125,300.890625C960.6,290.0 965.3,311.8 1111.5,300.9C1112.8,327.6 1110.2,312.3 1111.5,333.4C903.7,322.5 947.2,344.3 838.1,333.4C836.8,319.4 839.4,319.5 838.1,300.9" stroke="#000000" fill="#ffffff" style="stroke-width: 2;"></path><text x="843.078125" y="319.890625" style="font-size: 16px; font-family: danielbd;"><tspan x="843.078125">[{name:"Pencil", price:8, _id=1}]</tspan></text></g><g class="signal"><text x="572.1640625" y="361.140625" style="font-size: 16px; font-family: danielbd;"><tspan x="572.1640625">Return Product</tspan></text><path d="M725.5,375.9C660.4,382.6 676.1,369.2 558.5,375.9" stroke="#000000" fill="none" style="stroke-width: 2; marker-end: url(&quot;#markerArrowBlock&quot;);"></path></g><g class="signal"><text x="400.9140625" y="403.640625" style="font-size: 16px; font-family: danielbd;"><tspan x="400.9140625">Return Product</tspan></text><path d="M558.5,418.4C458.1,425.4 530.4,411.4 383.0,418.4" stroke="#000000" fill="none" style="stroke-width: 2; marker-end: url(&quot;#markerArrowBlock&quot;);"></path></g><g class="signal"><text x="149.9296875" y="446.140625" style="font-size: 16px; font-family: danielbd;"><tspan x="149.9296875">Http Response</tspan></text><path d="M383.0,460.9C328.4,447.2 184.4,474.5 41.8,460.9" stroke="#000000" fill="none" style="stroke-width: 2; marker-end: url(&quot;#markerArrowBlock&quot;);"></path></g><g class="note"><path d="M61.8359375,480.890625C101.5,476.5 145.7,485.3 172.2,480.9C173.5,488.7 170.9,492.4 172.2,513.4C88.3,509.0 97.3,517.8 61.8,513.4C63.1,505.6 60.5,508.2 61.8,480.9" stroke="#000000" fill="#ffffff" style="stroke-width: 2;"></path><text x="66.8359375" y="499.890625" style="font-size: 16px; font-family: danielbd;"><tspan x="66.8359375">[status: ok]</tspan></text></g><g class="signal"><text x="153.0625" y="541.140625" style="font-size: 16px; font-family: danielbd;"><tspan x="153.0625">Http Request</tspan></text><path d="M41.8,555.9C123.7,542.2 228.2,569.5 383.0,555.9" stroke="#000000" fill="none" style="stroke-width: 2; marker-end: url(&quot;#markerArrowBlock&quot;);"></path></g><g class="note"><path d="M61.8359375,575.890625C176.9,587.8 133.2,564.0 359.2,575.9C361.3,592.2 357.2,588.9 359.2,627.6C287.9,639.5 270.0,615.7 61.8,627.6C63.9,604.7 59.8,619.3 61.8,575.9" stroke="#000000" fill="#ffffff" style="stroke-width: 2;"></path><text x="66.8359375" y="594.890625" style="font-size: 16px; font-family: danielbd;"><tspan x="66.8359375">sendGet</tspan><tspan dy="1.2em" x="66.8359375">http://127.0.0.1:3000/sendGet</tspan></text></g><g class="signal"><text x="392.9609375" y="655.328125" style="font-size: 16px; font-family: danielbd;"><tspan x="392.9609375">Request Products</tspan></text><path d="M383.0,670.1C425.1,677.1 451.2,663.1 558.5,670.1" stroke="#000000" fill="none" style="stroke-width: 2; marker-end: url(&quot;#markerArrowBlock&quot;);"></path></g><g class="signal"><text x="581.265625" y="697.828125" style="font-size: 16px; font-family: danielbd;"><tspan x="581.265625">Get Products</tspan></text><path d="M558.5,712.6C649.2,705.9 633.5,719.3 725.5,712.6" stroke="#000000" fill="none" style="stroke-width: 2; marker-end: url(&quot;#markerArrowBlock&quot;);"></path></g><g class="note"><path d="M838.078125,732.578125C1023.6,721.6 1045.9,743.5 1111.5,732.6C1112.8,737.8 1110.2,750.0 1111.5,765.1C881.8,776.0 1007.7,754.1 838.1,765.1C836.8,753.6 839.4,745.4 838.1,732.6" stroke="#000000" fill="#ffffff" style="stroke-width: 2;"></path><text x="843.078125" y="751.578125" style="font-size: 16px; font-family: danielbd;"><tspan x="843.078125">[{name:"Pencil", price:8, _id=1}]</tspan></text></g><g class="signal"><text x="568.5390625" y="792.828125" style="font-size: 16px; font-family: danielbd;"><tspan x="568.5390625">Return Products</tspan></text><path d="M725.5,807.6C685.4,800.9 598.6,814.3 558.5,807.6" stroke="#000000" fill="none" style="stroke-width: 2; marker-end: url(&quot;#markerArrowBlock&quot;);"></path></g><g class="signal"><text x="397.2890625" y="835.328125" style="font-size: 16px; font-family: danielbd;"><tspan x="397.2890625">Return Products</tspan></text><path d="M558.5,850.1C457.4,843.1 448.7,857.1 383.0,850.1" stroke="#000000" fill="none" style="stroke-width: 2; marker-end: url(&quot;#markerArrowBlock&quot;);"></path></g><g class="signal"><text x="149.9296875" y="877.828125" style="font-size: 16px; font-family: danielbd;"><tspan x="149.9296875">Http Response</tspan></text><path d="M383.0,892.6C301.1,878.9 176.2,906.2 41.8,892.6" stroke="#000000" fill="none" style="stroke-width: 2; marker-end: url(&quot;#markerArrowBlock&quot;);"></path></g></svg>